# AST/ASF file generated using VICON BodyLanguage
# -----------------------------------------------
:version 1.10
:name VICON
:units
  mass 1.0
  length 0.45
  angle deg
:documentation
   .ast/.asf automatically generated from VICON data using
   VICON BodyBuilder and BodyLanguage model FoxedUp or BRILLIANT.MOD
:root
   order TX TY TZ RX RY RZ
   axis XYZ
   position 0 0 0  
   orientation 0 0 0 
:bonedata
  begin
     id 1 
     name lhipjoint
     direction 0.610259 -0.730986 0.305356 
     length 2.50941 
     axis 0 0 0  XYZ
  end
  begin
     id 2 
     name lfemur
     direction 0.34202 -0.939693 0  
     length 7.48822  
     axis 0 0 20  XYZ
    dof rx ry rz
    limits (-160.0 20.0)
           (-70.0 70.0)
           (-60.0 70.0)
  end
  begin
     id 3 
     name ltibia
     direction 0.34202 -0.939693 0   
     length 7.60141   
     axis 0 0 20   XYZ
    dof rx
    limits (-10.0 170.0)
  end
  begin
     id 4 
     name lfoot
     direction 0.0673488 -0.185039 0.980421   
     length 2.04049   
     axis -90 7.62852e-016 20   XYZ
    dof rx rz
    limits (-45.0 90.0)
           (-70.0 20.0)
  end
  begin
     id 5 
     name ltoes
     direction 1.5356e-011 -4.21729e-011 1   
     length 1.02897   
     axis -90 7.62852e-016 20   XYZ
    dof rx
    limits (-90.0 20.0)
  end
  begin
     id 6 
     name rhipjoint
     direction -0.57612 -0.754205 0.315056   
     length 2.43216  
     axis 0 0 0  XYZ 
  end
  begin
     id 7 
     name rfemur
     direction -0.34202 -0.939693 0   
     length 7.42799   
     axis 0 0 -20   XYZ
    dof rx ry rz
    limits (-160.0 20.0)
           (-70.0 70.0)
           (-70.0 60.0)
  end
  begin
     id 8 
     name rtibia
     direction -0.34202 -0.939693 0   
     length 7.69484   
     axis 0 0 -20   XYZ
    dof rx
    limits (-10.0 170.0)
 end
 begin
     id 9 
     name rfoot
     direction -0.111837 -0.30727 0.945028   
     length 2.15769  
     axis -90 -7.62852e-016 -20   XYZ
    dof rx rz
    limits (-45.0 90.0)
           (-20.0 70.0)
  end
  begin
     id 10 
     name rtoes
     direction -1.53539e-011 -4.21878e-011 1   
     length 1.07391   
     axis -90 -7.62852e-016 -20   XYZ
    dof rx
    limits (-90.0 20.0)
  end
  begin
     id 11 
     name lowerback
     direction 0.00552624 0.990109 -0.140195   
     length 2.12403   
     axis 0 0 0   XYZ
    dof rx ry rz
    limits (-20.0 45.0)
           (-30.0 30.0)
           (-30.0 30.0)
  end
  begin
     id 12 
     name upperback
     direction 0.00361898 0.999976 -0.00584723   
     length 2.13232   
     axis 0 0 0   XYZ
    dof rx ry rz
    limits (-20.0 45.0)
           (-30.0 30.0)
           (-30.0 30.0)
  end
  begin
     id 13 
     name thorax
     direction -0.000331275 0.998253 0.0590847   
     length 2.17688   
     axis 0 0 0   XYZ
    dof rx ry rz
    limits (-20.0 45.0)
           (-30.0 30.0)
           (-30.0 30.0)
  end
  begin
     id 14 
     name lowerneck
     direction -0.0561561 0.979832 0.19177   
     length 1.64159   
     axis 0 0 0   XYZ
    dof rx ry rz
    limits (-20.0 45.0)
           (-30.0 30.0)
           (-30.0 30.0)
  end
  begin
     id 15 
     name upperneck
     direction 0.0827153 0.979385 -0.184293   
     length 1.68939   
     axis 0 0 0   XYZ
    dof rx ry rz
    limits (-20.0 45.0)
           (-30.0 30.0)
           (-30.0 30.0)
  end
  begin
     id 16
     name head
     direction 0.0278583 0.995936 -0.0856488  
     length 1.70207  
     axis 0 0 0   XYZ
    dof rx ry rz
    limits (-20.0 45.0)
           (-30.0 30.0)
           (-30.0 30.0)
  end
  begin
     id 17 
     name lclavicle
     direction 0.950993 0.301131 -0.0702275  
     length 3.41652  
     axis 0 0 0   XYZ
    dof ry rz
    limits (-20.0 10.0)
           (0.0 20.0)
  end
  begin
     id 18 
     name lhumerus
     direction 1 -4.48981e-011 -3.9662e-029   
     length 5.32955   
     axis 180 -30 -90   XYZ
    dof rx ry rz
    limits (-60.0 90.0)
           (-90.0 90.0)
           (-90.0 90.0)
  end
  begin
     id 19
     name lradius
     direction 1 -4.48925e-011 -9.0549e-027   
     length 3.69232   
     axis 180 -30 -90   XYZ
    dof rx
    limits (-10.0 170.0)
  end
  begin
     id 20
     name lwrist
     direction 1 -4.49007e-011 -1.49005e-026   
     length 1.84616   
     axis 9.0955e-015 90 90   XYZ
    dof ry
    limits (-180.0 0.0)
 end
  begin
     id 21 
     name lhand
     direction 1 -4.49016e-011 -2.98023e-026   
     length 0.536598   
     axis 1.90115e-014 90 90   XYZ
    dof rx rz
    limits (-90.0 90.0)
           (-45.0 45.0)
  end
  begin
     id 22 
     name lfingers
     direction 1 -4.48924e-011 -5.9578e-026   
     length 0.432619   
     axis 3.80223e-014 90 90   XYZ
    dof rx
    limits (0.0 90.0)
  end
  begin
     id 23
     name lthumb
     direction 0.707107 -6.34947e-011 0.707107   
     length 0.621157   
     axis -90 45 -3.84942e-014   XYZ
    dof rx rz
    limits (-45.0 45.0)
           (-45.0 45.0)
  end
  begin
     id 24 
     name rclavicle
     direction -0.955495 0.276497 -0.102848   
     length 3.36357  
     axis 0 0 0   XYZ 
    dof ry rz
    limits (-10.0 20.0)
           (-20.0 0.0)
  end
  begin
     id 25 
     name rhumerus
     direction -1 -4.48961e-011 3.30983e-027  
     length 5.23431   
     axis 180 30 90   XYZ
    dof rx ry rz
    limits (-90.0 60.0)
           (-90.0 90.0)
           (-90.0 90.0)
  end
  begin
     id 26 
     name rradius
     direction -1 -4.48965e-011 -6.63263e-027   
     length 3.55301   
     axis 180 30 90   XYZ
    dof rx
    limits (-10.0 170.0)
  end
  begin
     id 27 
     name rwrist
     direction -1 -4.48942e-011 -1.48958e-026   
     length 1.77651   
     axis 9.0955e-015 -90 -90   XYZ
    dof ry
    limits (-180.0 0.0)
  end
  begin
     id 28
     name rhand
     direction -1 -4.48977e-011 -2.97966e-026   
     length 0.772522   
     axis 1.90115e-014 -90 -90   XYZ
    dof rx rz
    limits (-90.0 90.0)
           (-45.0 45.0)
  end
  begin
     id 29
     name rfingers
     direction -1 -4.49135e-011 -5.96389e-026   
     length 0.622827   
     axis 3.80223e-014 -90 -90   XYZ
    dof rx
    limits (0.0 90.0)
  end
  begin
     id 30
     name rthumb
     direction -0.707107 -6.34969e-011 0.707107   
     length 0.894259   
     axis -90 -45 3.84942e-014   XYZ
    dof rx rz
    limits (-45.0 45.0)
           (-45.0 45.0)
  end
:hierarchy
  begin
    root lhipjoint rhipjoint lowerback
    lhipjoint lfemur
    lfemur ltibia
    ltibia lfoot
    lfoot ltoes
    rhipjoint rfemur
    rfemur rtibia
    rtibia rfoot
    rfoot rtoes
    lowerback upperback
    upperback thorax
    thorax lowerneck lclavicle rclavicle
    lowerneck upperneck
    upperneck head
    lclavicle lhumerus
    lhumerus lradius
    lradius lwrist
    lwrist lhand lthumb
    lhand lfingers
    rclavicle rhumerus
    rhumerus rradius
    rradius rwrist
    rwrist rhand rthumb
    rhand rfingers
  end

#!OML:ASF F:\VICON\USERDATA\INSTALL\rory3\rory3.ASF
:FULLY-SPECIFIED
:DEGREES
48
root -13.0338 17.5493 -5.47025 0.0644042 -9.09117 -4.33838
lowerback 9.38715 2.92557 4.24489
upperback 0.499305 4.37549 0.785239
thorax -4.481 2.08311 -2.12509
lowerneck -20.3883 -5.76212 -12.1033
upperneck 27.6582 -7.1109 9.49378
head 13.566 -3.14903 4.55079
rclavicle -2.15495e-014 -1.39149e-014
rhumerus -23.8635 -6.82186 -83.9216
rradius 34.9806
rwrist 2.93139
rhand -16.1947 9.45254
rfingers 7.12502
rthumb 10.0123 -20.2893
lclavicle -2.15495e-014 -1.39149e-014
lhumerus -39.261 8.94294 80.9272
lradius 29.3114
lwrist -9.21878
lhand -17.401 24.6872
lfingers 7.12502
lthumb 8.8484 54.4817
rfemur 11.807 4.79812 28.952
rtibia 19.1709
rfoot -16.38 3.94917
rtoes 1.76316
lfemur -23.0036 -4.98457 -12.5835
ltibia 8.47615
lfoot -4.64707 8.3859
ltoes -17.1439
49
root -13.0253 17.5453 -5.3086 0.158156 -9.0815 -4.43486
lowerback 9.33915 2.91553 4.26867
upperback 0.392163 4.37066 0.874465
thorax -4.57206 2.07728 -2.04623
lowerneck -20.2946 -5.77107 -12.268
upperneck 27.6614 -7.07599 9.49011
head 13.5504 -3.1546 4.58495
rclavicle -1.62041e-014 -5.86415e-015
rhumerus -23.9944 -6.86481 -83.8341
rradius 34.9296
rwrist 2.99561
rhand -16.0758 9.5581
rfingers 7.12502
rthumb 10.1271 -20.1782
lclavicle -1.62041e-014 -5.86415e-015
lhumerus -39.4821 9.04203 81.0051
lradius 28.9805
lwrist -9.43155
lhand -17.5484 25.1444
lfingers 7.12502
lthumb 8.70619 54.9449
rfemur 12.1965 4.75388 28.9339
rtibia 19.2626
rfoot -15.9525 4.18244
rtoes 1.55547
lfemur -23.0389 -4.69231 -12.7185
ltibia 8.7635
lfoot -4.38002 7.93556
ltoes -15.3994
50
root -13.0123 17.5378 -5.13733 0.118392 -9.06674 -4.46039
lowerback 9.3054 2.92559 4.33816
upperback 0.360962 4.39081 0.87416
thorax -4.57944 2.08521 -2.08652
lowerneck -20.3106 -5.78522 -12.3295
upperneck 27.7834 -7.09409 9.52657
head 13.6126 -3.16517 4.61186
rclavicle -1.00448e-014 -1.01877e-014
rhumerus -24.1737 -7.14042 -83.777
rradius 34.9323
rwrist 3.06677
rhand -15.8927 9.82652
rfingers 7.12502
rthumb 10.3037 -19.9011
lclavicle -1.00448e-014 -1.01877e-014
lhumerus -39.5772 9.18248 80.9519
lradius 28.5426
lwrist -9.84155
lhand -17.4556 25.5188
lfingers 7.12502
lthumb 8.79572 55.3155
rfemur 12.7538 4.56351 28.7745
rtibia 19.3601
rfoot -15.5878 4.47238
rtoes 0.693601
lfemur -23.0718 -4.45433 -13.0105
ltibia 9.53323
lfoot -3.88788 7.64402
ltoes -15.4116
51
root -13.0007 17.5276 -4.96562 0.0505609 -9.06698 -4.47251
lowerback 9.33069 2.92698 4.40165
upperback 0.307765 4.40118 0.839519
thorax -4.64123 2.08624 -2.16249
lowerneck -20.2318 -5.74856 -12.2805
upperneck 27.8499 -7.07832 9.54163
head 13.6199 -3.15385 4.61592
rclavicle 2.71993e-014 5.76476e-015
rhumerus -24.3979 -7.47131 -83.7908
rradius 34.9249
rwrist 3.22114
rhand -15.7374 9.93904
rfingers 7.12502
rthumb 10.4534 -19.7811
lclavicle 2.71993e-014 5.76476e-015
lhumerus -39.7266 9.44587 80.7617
lradius 28.0658
lwrist -10.2791
lhand -17.4396 25.4902
lfingers 7.12502
lthumb 8.81114 55.2863
rfemur 13.335 4.66714 28.708
rtibia 19.4896
rfoot -15.0411 4.59323
rtoes 0.796473
lfemur -23.1905 -4.20682 -13.3239
ltibia 10.6422
lfoot -3.40266 7.45065
ltoes -15.7663
52
root -12.994 17.5208 -4.7971 0.00261317 -9.03593 -4.52533
lowerback 9.32799 2.91163 4.42162
upperback 0.312215 4.38341 0.85606
thorax -4.63607 2.07739 -2.15393
lowerneck -20.2847 -5.73535 -12.2296
upperneck 27.8833 -7.06187 9.50745
head 13.6389 -3.1446 4.59706
rclavicle 4.46396e-014 1.2921e-015
rhumerus -24.4708 -7.72498 -83.8075
rradius 34.8619
rwrist 3.33262
rhand -15.6705 9.76959
rfingers 7.12502
rthumb 10.518 -19.9473
lclavicle 4.46396e-014 1.2921e-015
lhumerus -39.781 9.84652 80.5801
lradius 27.7236
lwrist -10.7518
lhand -17.2782 25.773
lfingers 7.12502
lthumb 8.96688 55.5624
rfemur 13.8646 4.90561 28.7799
rtibia 19.6116
rfoot -14.3433 4.51533
rtoes 0.518866
lfemur -23.3698 -3.52052 -13.7509
ltibia 11.939
lfoot -2.95687 6.69304
ltoes -15.0708
53
root -12.9872 17.5228 -4.62327 -0.0881561 -9.03628 -4.5293
lowerback 9.26479 2.91014 4.39076
upperback 0.392289 4.37257 0.876798
thorax -4.52138 2.07718 -2.10704
lowerneck -20.4054 -5.76993 -12.3215
upperneck 27.8905 -7.07501 9.53912
head 13.6755 -3.1531 4.6229
rclavicle 1.2393e-014 -1.07841e-014
rhumerus -24.4593 -7.88905 -83.83
rradius 34.7734
rwrist 3.36373
rhand -15.7459 9.52267
rfingers 7.12502
rthumb 10.4453 -20.1979
lclavicle 1.2393e-014 -1.07841e-014
lhumerus -39.7197 10.1835 80.4841
lradius 27.4105
lwrist -11.1125
lhand -17.1641 26.2637
lfingers 7.12502
lthumb 9.07701 56.0483
rfemur 14.3975 5.06317 28.7613
rtibia 19.788
rfoot -13.507 4.60714
rtoes 0.974773
lfemur -23.4717 -2.83278 -14.2116
ltibia 13.2441
lfoot -2.10204 5.73835
ltoes -13.1503
54
root -12.9765 17.5336 -4.44454 -0.244223 -9.09254 -4.41161
lowerback 9.18576 2.94758 4.26483
upperback 0.470983 4.40188 0.874526
thorax -4.40201 2.09861 -2.03508
lowerneck -20.4485 -5.83193 -12.467
upperneck 27.9383 -7.11645 9.55402
head 13.7189 -3.18434 4.6478
rclavicle 5.76786e-015 -6.70898e-015
rhumerus -24.6375 -7.8809 -83.8105
rradius 34.8352
rwrist 3.20414
rhand -15.8693 9.41279
rfingers 7.12502
rthumb 10.3262 -20.3137
lclavicle 5.76786e-015 -6.70898e-015
lhumerus -39.6656 10.5347 80.398
lradius 27.0204
lwrist -11.5579
lhand -17.4483 26.0934
lfingers 7.12502
lthumb 8.80279 55.8898
rfemur 14.9644 5.10439 28.5596
rtibia 20.0683
rfoot -12.7279 4.73614
rtoes 0.274761
lfemur -23.499 -2.47234 -14.6693
ltibia 14.4802
lfoot -0.643009 4.88078
ltoes -11.8424
55
root -12.966 17.548 -4.26884 -0.345661 -9.09459 -4.27883
lowerback 9.17129 2.98632 4.10213
upperback 0.450616 4.43573 0.853575
thorax -4.42358 2.11774 -1.97044
lowerneck -20.4146 -5.8847 -12.4172
upperneck 28.0103 -7.18581 9.44384
head 13.745 -3.22507 4.58335
rclavicle -2.62737e-014 3.62782e-015
rhumerus -25.0402 -8.07668 -83.7491
rradius 34.969
rwrist 3.24178
rhand -15.782 9.50913
rfingers 7.12502
rthumb 10.4104 -20.2131
lclavicle -2.62737e-014 3.62782e-015
lhumerus -39.6859 10.7719 80.3152
lradius 26.6481
lwrist -11.8603
lhand -17.7585 25.4524
lfingers 7.12502
lthumb 8.50337 55.2612
rfemur 15.3383 5.12003 28.3738
rtibia 20.5173
rfoot -11.7921 4.74743
rtoes -0.603698
lfemur -23.5771 -2.19204 -15.0803
ltibia 15.5914
lfoot 0.706148 4.07141
ltoes -12.2756
56
root -12.9588 17.5669 -4.08972 -0.442853 -9.03021 -3.83604
lowerback 9.19934 3.01174 3.6196
upperback 0.346614 4.41786 0.708897
thorax -4.5735 2.11289 -1.85636
lowerneck -20.2979 -5.88403 -12.3049
upperneck 28.079 -7.22365 9.37534
head 13.746 -3.24209 4.53208
rclavicle -4.21983e-014 -6.01324e-015
rhumerus -25.4946 -8.54904 -83.7182
rradius 34.8776
rwrist 3.50577
rhand -15.7951 9.93485
rfingers 7.12502
rthumb 10.3978 -19.7881
lclavicle -4.21983e-014 -6.01324e-015
lhumerus -39.8187 10.9598 80.1167
lradius 26.2925
lwrist -12.0348
lhand -18.3145 24.4389
lfingers 7.12502
lthumb 7.96681 54.2688
rfemur 15.4819 5.26419 27.9243
rtibia 21.3127
rfoot -10.8208 4.64491
rtoes -0.464416
lfemur -23.5126 -1.8828 -15.8262
ltibia 16.4179
lfoot 1.4378 3.53007
ltoes -12.8536
